<svg xmlns="http://www.w3.org/2000/svg" viewBox="0 0 100 100"><path fill="#788f9b" d="M50 0C33 0 19 13 19 28v19h12V30c0-10 9-18 19-18s19 8 19 18v17h12V28C81 13 67 0 50 0Z"/><path fill="#fbd734" d="M50 47v53h32c2 0 4-2 4-4V51c0-2-2-4-4-4Z"/><path fill="#ffed58" d="M18 47c-2 0-4 2-4 4v45c0 2 2 4 4 4h32V47Z"/><path fill="#546e7a" d="M50 6a25 22 0 0 0-25 21v20h6V30c0-10 9-18 19-18s19 8 19 18v17h6V28A25 22 0 0 0 50 6Z"/><path fill="#465359" d="M50 59a8 8 0 0 0-4 15s-4 7-4 11v6h8z"/><path fill="#465359" d="M50 59a8 8 0 0 0-4 15s-4 7-4 11v6h16v-6c0-4-4-11-4-11a8 8 0 0 0-4-15z"/></svg>
