<svg xmlns="http://www.w3.org/2000/svg" viewBox="0 0 100 100"><path fill="#788f9b" d="M50 8.3c-14.2 0-25.8 10.9-25.8 23.4v15.8h10V33.3c0-8.3 7.5-15 15.8-15s15.8 6.7 15.8 15v14.2h10V31.7C75.8 19.2 64.2 8.3 50 8.3Z"/><path fill="#fbd734" d="M50 47.5v44.2h26.7c1.6 0 3.3-1.7 3.3-3.4V50.8c0-1.6-1.7-3.3-3.3-3.3z"/><path fill="#ffed58" d="M23.3 47.5a3.6 3.6 0 0 0-3.3 3.3v37.5c0 1.7 1.7 3.4 3.3 3.4H50V47.5Z"/><path fill="#546e7a" d="M50 13.3a20.8 18.3 0 0 0-20.8 17.5v16.7h5V33.3c0-8.3 7.5-15 15.8-15s15.8 6.7 15.8 15v14.2h5V31.7A20.8 18.3 0 0 0 50 13.3Z"/><path fill="#465359" d="M50 57.5A6.7 6.7 0 0 0 46.7 70s-3.4 5.8-3.4 9.2v5H50z"/><path fill="#465359" d="M50 57.5A6.7 6.7 0 0 0 46.7 70s-3.4 5.8-3.4 9.2v5h13.4v-5c0-3.4-3.4-9.2-3.4-9.2A6.7 6.7 0 0 0 50 57.5Z"/></svg>
